<?xml version="1.0" encoding="UTF-8" standalone="no"?><!-- Generator: Gravit.io --><svg xmlns="http://www.w3.org/2000/svg" xmlns:xlink="http://www.w3.org/1999/xlink" style="isolation:isolate" viewBox="0 0 640 512" width="640pt" height="512pt"><defs><clipPath id="_clipPath_E1y5fktMk2wgmQ8yNQqIydgGYpoQCMKR"><rect width="640" height="512"/></clipPath></defs><g clip-path="url(#_clipPath_E1y5fktMk2wgmQ8yNQqIydgGYpoQCMKR)"><path d=" M 224 288 C 303.5 288 368 223.5 368 144 C 368 64.5 303.5 0 224 0 C 144.5 0 80 64.5 80 144 C 80 223.5 144.5 288 224 288 Z  M 224 48 C 276.9 48 320 91.1 320 144 C 320 196.9 276.9 240 224 240 C 171.1 240 128 196.9 128 144 C 128 91.1 171.1 48 224 48 Z  M 313.6 304 C 284.9 304 271.1 320 224 320 C 176.9 320 163.2 304 134.4 304 C 60.2 304 0 364.2 0 438.4 L 0 464 C 0 490.5 21.5 512 48 512 L 400 512 C 426.5 512 448 490.5 448 464 L 448 438.4 C 448 364.2 387.8 304 313.6 304 Z  M 400 464 L 48 464 L 48 438.4 C 48 390.8 86.8 352 134.4 352 C 149 352 172.7 368 224 368 C 275.7 368 298.9 352 313.6 352 C 361.2 352 400 390.8 400 438.4 L 400 464 L 400 464 Z  M 624 216 L 552 216 L 552 144 C 552 135.2 544.8 128 536 128 L 520 128 C 511.2 128 504 135.2 504 144 L 504 216 L 432 216 C 423.2 216 416 223.2 416 232 L 416 248 C 416 256.8 423.2 264 432 264 L 504 264 L 504 336 C 504 344.8 511.2 352 520 352 L 536 352 C 544.8 352 552 344.8 552 336 L 552 264 L 624 264 C 632.8 264 640 256.8 640 248 L 640 232 C 640 223.2 632.8 216 624 216 Z " fill="rgb(255,255,255)"/></g></svg>