<?xml version="1.0" encoding="UTF-8" standalone="no"?><!-- Generator: Gravit.io --><svg xmlns="http://www.w3.org/2000/svg" xmlns:xlink="http://www.w3.org/1999/xlink" style="isolation:isolate" viewBox="0 0 384 512" width="384pt" height="512pt"><defs><clipPath id="_clipPath_GU6q57UKPHW42JjROKltBNvYrqo76T8u"><rect width="384" height="512"/></clipPath></defs><g clip-path="url(#_clipPath_GU6q57UKPHW42JjROKltBNvYrqo76T8u)"><path d=" M 368 224 L 224 224 L 224 80 C 224 71.16 216.84 64 208 64 L 176 64 C 167.16 64 160 71.16 160 80 L 160 224 L 16 224 C 7.16 224 0 231.16 0 240 L 0 272 C 0 280.84 7.16 288 16 288 L 160 288 L 160 432 C 160 440.84 167.16 448 176 448 L 208 448 C 216.84 448 224 440.84 224 432 L 224 288 L 368 288 C 376.84 288 384 280.84 384 272 L 384 240 C 384 231.16 376.84 224 368 224 Z " fill="rgb(0,0,0)"/></g></svg>