<?xml version="1.0" encoding="UTF-8" standalone="no"?><!-- Generator: Gravit.io --><svg xmlns="http://www.w3.org/2000/svg" xmlns:xlink="http://www.w3.org/1999/xlink" style="isolation:isolate" viewBox="0 0 576 512" width="576pt" height="512pt"><defs><clipPath id="_clipPath_ZGF2TJlToQ2oc4PVUriaaGtqZwHFMHM5"><rect width="576" height="512"/></clipPath></defs><g clip-path="url(#_clipPath_ZGF2TJlToQ2oc4PVUriaaGtqZwHFMHM5)"><path d=" M 551.991 64 L 144.28 64 L 135.554 19.392 C 133.35 8.128 123.478 0 112 0 L 12 0 C 5.373 0 0 5.373 0 12 L 0 36 C 0 42.627 5.373 48 12 48 L 92.24 48 L 161.834 403.701 C 150.796 415.201 144 430.802 144 448 C 144 483.346 172.654 512 208 512 C 243.346 512 272 483.346 272 448 C 272.012 436.763 269.051 425.723 263.417 416 L 408.584 416 C 402.95 425.723 399.989 436.763 400.001 448 C 400.001 483.346 428.655 512 464.001 512 C 499.347 512 528.001 483.346 528.001 448 C 528.001 429.864 520.445 413.504 508.325 401.858 L 509.36 397.101 C 512.614 382.141 501.218 368 485.908 368 L 203.76 368 L 194.37 320 L 506.775 320 C 518.065 320 527.829 312.131 530.227 301.098 L 575.443 93.098 C 578.695 78.139 567.299 64 551.991 64 Z  M 208 472 C 194.766 472 184 461.234 184 448 C 184 434.766 194.766 424 208 424 C 221.234 424 232 434.766 232 448 C 232 461.234 221.234 472 208 472 Z  M 464 472 C 450.766 472 440 461.234 440 448 C 440 434.766 450.766 424 464 424 C 477.234 424 488 434.766 488 448 C 488 461.234 477.234 472 464 472 Z  M 487.438 272 L 184.98 272 L 153.67 112 L 522.218 112 L 487.438 272 L 487.438 272 Z " fill="rgb(162,162,162)"/></g></svg>