<?xml version="1.0" encoding="UTF-8" standalone="no"?><!-- Generator: Gravit.io --><svg xmlns="http://www.w3.org/2000/svg" xmlns:xlink="http://www.w3.org/1999/xlink" style="isolation:isolate" viewBox="0 0 320 512" width="320pt" height="512pt"><defs><clipPath id="_clipPath_oY5avTB5sV5mbEEue48RlmahQPorzuo6"><rect width="320" height="512"/></clipPath></defs><g clip-path="url(#_clipPath_oY5avTB5sV5mbEEue48RlmahQPorzuo6)"><path d=" M 207.6 256 L 315.32 148.28 C 321.55 142.05 321.55 131.94 315.32 125.7 L 290.29 100.67 C 284.06 94.44 273.95 94.44 267.71 100.67 L 160 208.4 L 52.28 100.68 C 46.05 94.45 35.94 94.45 29.7 100.68 L 4.68 125.7 C -1.55 131.93 -1.55 142.04 4.68 148.28 L 112.4 256 L 4.68 363.72 C -1.55 369.95 -1.55 380.06 4.68 386.3 L 29.71 411.33 C 35.94 417.56 46.05 417.56 52.29 411.33 L 160 303.6 L 267.72 411.32 C 273.95 417.55 284.06 417.55 290.3 411.32 L 315.33 386.29 C 321.56 380.06 321.56 369.95 315.33 363.71 L 207.6 256 L 207.6 256 Z " fill="rgb(255,255,255)"/></g></svg>