<?xml version="1.0" encoding="UTF-8" standalone="no"?><!-- Generator: Gravit.io --><svg xmlns="http://www.w3.org/2000/svg" xmlns:xlink="http://www.w3.org/1999/xlink" style="isolation:isolate" viewBox="0 0 448 512" width="448pt" height="512pt"><defs><clipPath id="_clipPath_184eXOPqoAQZpAzmpRk1oKEtyHmo2W3P"><rect width="448" height="512"/></clipPath></defs><g clip-path="url(#_clipPath_184eXOPqoAQZpAzmpRk1oKEtyHmo2W3P)"><path d=" M 128 148 L 128 108 C 128 101.4 133.4 96 140 96 L 180 96 C 186.6 96 192 101.4 192 108 L 192 148 C 192 154.6 186.6 160 180 160 L 140 160 C 133.4 160 128 154.6 128 148 Z  M 268 160 L 308 160 C 314.6 160 320 154.6 320 148 L 320 108 C 320 101.4 314.6 96 308 96 L 268 96 C 261.4 96 256 101.4 256 108 L 256 148 C 256 154.6 261.4 160 268 160 Z  M 140 256 L 180 256 C 186.6 256 192 250.6 192 244 L 192 204 C 192 197.4 186.6 192 180 192 L 140 192 C 133.4 192 128 197.4 128 204 L 128 244 C 128 250.6 133.4 256 140 256 Z  M 268 256 L 308 256 C 314.6 256 320 250.6 320 244 L 320 204 C 320 197.4 314.6 192 308 192 L 268 192 C 261.4 192 256 197.4 256 204 L 256 244 C 256 250.6 261.4 256 268 256 Z  M 192 340 L 192 300 C 192 293.4 186.6 288 180 288 L 140 288 C 133.4 288 128 293.4 128 300 L 128 340 C 128 346.6 133.4 352 140 352 L 180 352 C 186.6 352 192 346.6 192 340 Z  M 268 352 L 308 352 C 314.6 352 320 346.6 320 340 L 320 300 C 320 293.4 314.6 288 308 288 L 268 288 C 261.4 288 256 293.4 256 300 L 256 340 C 256 346.6 261.4 352 268 352 Z  M 448 476 L 448 512 L 0 512 L 0 476 C 0 469.4 5.4 464 12 464 L 31.5 464 L 31.5 24 C 31.5 10.7 42.2 0 55.5 0 L 392.5 0 C 405.8 0 416.5 10.7 416.5 24 L 416.5 464 L 436 464 C 442.6 464 448 469.4 448 476 Z  M 79.5 463 L 192 463 L 192 396 C 192 389.4 197.4 384 204 384 L 244 384 C 250.6 384 256 389.4 256 396 L 256 463 L 368.5 463 L 368.5 49 L 80 48 L 79.5 463 L 79.5 463 Z " fill="rgb(0,0,0)"/></g></svg>