<?xml version="1.0" encoding="UTF-8" standalone="no"?><!-- Generator: Gravit.io --><svg xmlns="http://www.w3.org/2000/svg" xmlns:xlink="http://www.w3.org/1999/xlink" style="isolation:isolate" viewBox="0 0 576 512" width="576pt" height="512pt"><defs><clipPath id="_clipPath_rTmIhFmPWUm9M4fb7MpNJ2DQuJrGglle"><rect width="576" height="512"/></clipPath></defs><g clip-path="url(#_clipPath_rTmIhFmPWUm9M4fb7MpNJ2DQuJrGglle)"><path d=" M 416 320 C 416 337.67 430.33 352 448 352 C 465.67 352 480 337.67 480 320 C 480 302.33 465.67 288 448 288 C 430.33 288 416 302.33 416 320 Z  M 224 352 C 224 363.72 227.38 374.55 232.88 384 L 343.13 384 C 348.63 374.55 352.01 363.72 352.01 352 C 352.01 340.33 348.65 329.54 343.2 320.12 L 418.95 222.73 C 427.11 212.26 425.2 197.18 414.76 189.06 C 404.2 180.89 389.2 182.81 381.07 193.26 L 305.31 290.66 C 299.77 289.1 294.04 287.99 288.01 287.99 C 252.65 288 224 316.65 224 352 Z  M 320 160 C 320 142.33 305.67 128 288 128 C 270.33 128 256 142.33 256 160 C 256 177.67 270.33 192 288 192 C 305.67 192 320 177.67 320 160 Z  M 128 288 C 110.33 288 96 302.33 96 320 C 96 337.67 110.33 352 128 352 C 145.67 352 160 337.67 160 320 C 160 302.33 145.67 288 128 288 Z  M 176 240 C 193.67 240 208 225.67 208 208 C 208 190.33 193.67 176 176 176 C 158.33 176 144 190.33 144 208 C 144 225.67 158.33 240 176 240 Z  M 0 320 C 0 372.8 14.25 422.26 39.06 464.8 C 44.67 474.42 55.36 480 66.5 480 L 509.5 480 C 520.64 480 531.33 474.42 536.94 464.8 C 561.75 422.26 576 372.8 576 320 C 576 160.94 447.06 32 288 32 C 128.94 32 0 160.94 0 320 Z  M 48 320 C 48 187.66 155.66 80 288 80 C 420.34 80 528 187.66 528 320 C 528 359.12 518.44 397.63 500.27 432 L 75.73 432 C 57.56 397.63 48 359.12 48 320 Z " fill="rgb(0,0,0)"/></g></svg>