<?xml version="1.0" encoding="UTF-8" standalone="no"?><!-- Generator: Gravit.io --><svg xmlns="http://www.w3.org/2000/svg" xmlns:xlink="http://www.w3.org/1999/xlink" style="isolation:isolate" viewBox="0 0 512 512" width="512pt" height="512pt"><defs><clipPath id="_clipPath_omJ1zkqH3pMQCvWAhbcw2PFGtfQkDjm1"><rect width="512" height="512"/></clipPath></defs><g clip-path="url(#_clipPath_omJ1zkqH3pMQCvWAhbcw2PFGtfQkDjm1)"><path d=" M 493.26 56.26 L 455.75 18.75 C 443.25 6.25 426.87 0 410.49 0 C 394.11 0 377.73 6.25 365.24 18.74 L 290.75 93.23 L 256 127.98 L 12.85 371.12 L 0.15 485.34 C -1.45 499.72 9.88 512 23.95 512 C 24.84 512 25.74 511.95 26.64 511.85 L 140.78 499.24 L 384.02 256 L 418.76 221.26 L 493.25 146.77 C 518.25 121.77 518.25 81.25 493.26 56.26 L 493.26 56.26 Z  M 118.75 453.39 L 51.17 460.85 L 58.7 393.16 L 289.94 161.92 L 320.96 130.9 L 381.1 191.04 L 350.08 222.06 L 118.75 453.39 L 118.75 453.39 Z  M 459.31 112.82 L 415.03 157.1 L 354.9 96.96 L 399.18 52.68 C 403.26 48.6 408.02 47.99 410.49 47.99 C 412.96 47.99 417.73 48.6 421.8 52.68 L 459.31 90.19 C 465.55 96.44 465.55 106.59 459.31 112.82 L 459.31 112.82 Z " fill="rgb(255,255,255)"/></g></svg>