<?xml version="1.0" encoding="UTF-8" standalone="no"?><!-- Generator: Gravit.io --><svg xmlns="http://www.w3.org/2000/svg" xmlns:xlink="http://www.w3.org/1999/xlink" style="isolation:isolate" viewBox="0 0 576 512" width="576pt" height="512pt"><defs><clipPath id="_clipPath_BiJw8iSTE1F5gdon4kWuVCf7vk8nSLOr"><rect width="576" height="512"/></clipPath></defs><g clip-path="url(#_clipPath_BiJw8iSTE1F5gdon4kWuVCf7vk8nSLOr)"><path d=" M 572.52 241.4 C 518.29 135.59 410.93 64 288 64 C 165.07 64 57.68 135.64 3.48 241.41 C -1.159 250.587 -1.159 261.423 3.48 270.6 C 57.71 376.41 165.07 448 288 448 C 410.93 448 518.32 376.36 572.52 270.59 C 577.159 261.413 577.159 250.577 572.52 241.4 L 572.52 241.4 Z  M 288 400 C 208.471 400 144 335.529 144 256 C 144 176.471 208.471 112 288 112 C 367.529 112 432 176.471 432 256 C 432.019 294.197 416.853 330.835 389.844 357.844 C 362.835 384.853 326.197 400.019 288 400 L 288 400 Z  M 288 160 C 279.431 160.12 270.918 161.395 262.69 163.79 C 276.705 182.836 274.706 209.264 257.985 225.985 C 241.264 242.706 214.836 244.705 195.79 230.69 C 185.028 270.338 200.75 312.433 234.866 335.32 C 268.983 358.207 313.895 356.788 346.499 331.793 C 379.103 306.798 392.136 263.795 378.893 224.906 C 365.65 186.016 329.082 159.903 288 160 Z " fill="rgb(255,255,255)"/></g></svg>