<?xml version="1.0" encoding="UTF-8" standalone="no"?><!-- Generator: Gravit.io --><svg xmlns="http://www.w3.org/2000/svg" xmlns:xlink="http://www.w3.org/1999/xlink" style="isolation:isolate" viewBox="0 0 384 512" width="384pt" height="512pt"><defs><clipPath id="_clipPath_NnFFk78tHncMyVCBSSsTI2qcZe9ed1lx"><rect width="384" height="512"/></clipPath></defs><g clip-path="url(#_clipPath_NnFFk78tHncMyVCBSSsTI2qcZe9ed1lx)"><path d=" M 199.65 0 C 125.625 0 69.665 30.187 27.21 92.51 C 8.04 120.66 14.27 158.81 41.38 179.37 L 78.11 207.22 C 88.92 215.42 102.3 220.01 115.85 220.18 C 104.01 239.18 98.03 260.79 98.03 284.73 L 98.03 296.16 C 98.03 312.54 104.23 327.5 114.41 338.81 C 97.99 357.2 88 381.45 88 408 C 88 465.35 134.65 512 192 512 C 249.35 512 296 465.35 296 408 C 296 381.45 286.01 357.2 269.59 338.81 C 278.25 329.19 284.02 316.94 285.56 303.43 C 313.847 286.577 381.56 254.535 381.56 165.22 C 381.56 71.151 290.539 0 199.65 0 Z  M 192 464 C 161.12 464 136 438.88 136 408 C 136 377.127 161.118 352 192 352 C 222.887 352 248 377.132 248 408 C 248 438.88 222.88 464 192 464 Z  M 237.97 287.79 L 237.97 296.16 C 237.97 304.948 230.839 312 222.13 312 L 161.87 312 C 153.162 312 146.03 304.949 146.03 296.16 L 146.03 284.73 C 146.03 237.55 181.8 218.69 208.84 203.53 C 232.02 190.53 246.23 181.7 246.23 164.49 C 246.23 141.72 217.19 126.61 193.71 126.61 C 163.1 126.61 148.97 141.1 129.11 166.17 C 123.745 172.941 113.953 174.18 107.11 168.97 L 70.38 141.12 C 63.64 136.01 62.13 126.52 66.89 119.53 C 98.08 73.73 137.8 48 199.65 48 C 264.42 48 333.56 98.56 333.56 165.22 C 333.56 253.73 237.97 255.09 237.97 287.79 Z " fill="rgb(0,0,0)"/></g></svg>