<?xml version="1.0" encoding="UTF-8" standalone="no"?><!-- Generator: Gravit.io --><svg xmlns="http://www.w3.org/2000/svg" xmlns:xlink="http://www.w3.org/1999/xlink" style="isolation:isolate" viewBox="0 0 448 512" width="448pt" height="512pt"><defs><clipPath id="_clipPath_IYXtPoAJrKOAPKJyy0tWMCV4EQRhELEy"><rect width="448" height="512"/></clipPath></defs><g clip-path="url(#_clipPath_IYXtPoAJrKOAPKJyy0tWMCV4EQRhELEy)"><path d=" M 448 80 L 448 432 C 448 458.51 426.51 480 400 480 L 48 480 C 21.49 480 0 458.51 0 432 L 0 80 C 0 53.49 21.49 32 48 32 L 400 32 C 426.51 32 448 53.49 448 80 Z  M 400 426 L 400 86 C 400 82.686 397.314 80 394 80 L 54 80 C 50.686 80 48 82.686 48 86 L 48 426 C 48 429.314 50.686 432 54 432 L 394 432 C 397.314 432 400 429.314 400 426 Z  M 331.244 200.8 C 331.244 267.852 258.823 268.884 258.823 293.663 L 258.823 300 C 258.823 306.627 253.45 312 246.823 312 L 201.176 312 C 194.549 312 189.176 306.627 189.176 300 L 189.176 291.341 C 189.176 255.596 216.276 241.307 236.755 229.825 C 254.316 219.98 265.079 213.284 265.079 200.246 C 265.079 183 243.08 171.553 225.295 171.553 C 202.106 171.553 191.401 182.53 176.353 201.522 C 172.296 206.642 164.893 207.593 159.687 203.646 L 131.863 182.548 C 126.756 178.676 125.612 171.482 129.219 166.185 C 152.846 131.491 182.94 112 229.794 112 C 278.865 112 331.244 150.304 331.244 200.8 Z  M 266 368 C 266 391.159 247.159 410 224 410 C 200.841 410 182 391.159 182 368 C 182 344.841 200.841 326 224 326 C 247.159 326 266 344.841 266 368 Z " fill="rgb(255,255,255)"/></g></svg>