<?xml version="1.0" encoding="UTF-8" standalone="no"?><!-- Generator: Gravit.io --><svg xmlns="http://www.w3.org/2000/svg" xmlns:xlink="http://www.w3.org/1999/xlink" style="isolation:isolate" viewBox="0 0 384 512" width="384pt" height="512pt"><defs><clipPath id="_clipPath_4DJbanIBelY4osWAJ5Pr3f1twiLahQrC"><rect width="384" height="512"/></clipPath></defs><g clip-path="url(#_clipPath_4DJbanIBelY4osWAJ5Pr3f1twiLahQrC)"><path d=" M 126.2 286.4 L 190.4 222.8 C 192.5 220.7 192.5 217.3 190.4 215.2 L 177.8 202.5 C 175.7 200.4 172.3 200.4 170.2 202.5 L 122.6 249.7 L 102 228.8 C 99.9 226.7 96.5 226.7 94.4 228.8 L 81.7 241.4 C 79.6 243.5 79.6 246.9 81.7 249 L 118.8 286.4 C 120.7 288.5 124.1 288.5 126.2 286.4 L 126.2 286.4 Z  M 336 64 L 256 64 C 256 28.7 227.3 0 192 0 C 156.7 0 128 28.7 128 64 L 48 64 C 21.5 64 0 85.5 0 112 L 0 464 C 0 490.5 21.5 512 48 512 L 336 512 C 362.5 512 384 490.5 384 464 L 384 112 C 384 85.5 362.5 64 336 64 Z  M 192 48 C 200.8 48 208 55.2 208 64 C 208 72.8 200.8 80 192 80 C 183.2 80 176 72.8 176 64 C 176 55.2 183.2 48 192 48 Z  M 336 456 C 336 460.4 332.4 464 328 464 L 56 464 C 51.6 464 48 460.4 48 456 L 48 120 C 48 115.6 51.6 112 56 112 L 96 112 L 96 144 C 96 152.8 103.2 160 112 160 L 272 160 C 280.8 160 288 152.8 288 144 L 288 112 L 328 112 C 332.4 112 336 115.6 336 120 L 336 456 L 336 456 Z  M 112 328 C 98.7 328 88 338.7 88 352 C 88 365.3 98.7 376 112 376 C 125.3 376 136 365.3 136 352 C 136 338.7 125.3 328 112 328 Z  M 280 240 L 216.7 240 C 215.4 241.8 214.6 243.9 213 245.5 L 186.2 272 L 280 272 C 284.4 272 288 268.4 288 264 L 288 248 C 288 243.6 284.4 240 280 240 Z  M 280 336 L 168 336 C 163.6 336 160 339.6 160 344 L 160 360 C 160 364.4 163.6 368 168 368 L 280 368 C 284.4 368 288 364.4 288 360 L 288 344 C 288 339.6 284.4 336 280 336 Z " fill="rgb(0,0,0)"/></g></svg>