<?xml version="1.0" encoding="UTF-8" standalone="no"?><!-- Generator: Gravit.io --><svg xmlns="http://www.w3.org/2000/svg" xmlns:xlink="http://www.w3.org/1999/xlink" style="isolation:isolate" viewBox="0 0 640 512" width="640pt" height="512pt"><defs><clipPath id="_clipPath_LLvpk0KRjd57AVBwwlwWQKV70GuhjVQm"><rect width="640" height="512"/></clipPath></defs><g clip-path="url(#_clipPath_LLvpk0KRjd57AVBwwlwWQKV70GuhjVQm)"><path d=" M 504 208 L 136 208 C 113.9 208 96 225.9 96 248 L 96 496 C 96 504.8 103.2 512 112 512 L 128 512 C 136.8 512 144 504.8 144 496 L 144 448 L 496 448 L 496 496 C 496 504.8 503.2 512 512 512 L 528 512 C 536.8 512 544 504.8 544 496 L 544 248 C 544 225.9 526.1 208 504 208 Z  M 496 416 L 144 416 L 144 352 L 496 352 L 496 416 L 496 416 Z  M 496 320 L 144 320 L 144 256 L 496 256 L 496 320 L 496 320 Z  M 597.9 110.1 L 346.3 5.3 C 329.3 -1.7 310.6 -1.8 293.7 5.3 L 42.1 110.1 C 16.5 120.7 0 145.5 0 173.2 L 0 496 C 0 504.8 7.2 512 16 512 L 32 512 C 40.8 512 48 504.8 48 496 L 48 173.2 C 48 164.9 52.9 157.5 60.5 154.4 L 312.2 49.6 C 317.3 47.5 322.8 47.5 327.9 49.6 L 579.5 154.4 C 587.1 157.6 592 165 592 173.2 L 592 496 C 592 504.8 599.2 512 608 512 L 624 512 C 632.8 512 640 504.8 640 496 L 640 173.2 C 640 145.5 623.5 120.7 597.9 110.1 Z " fill="rgb(255,255,255)"/></g></svg>