<?xml version="1.0" encoding="UTF-8" standalone="no"?><!-- Generator: Gravit.io --><svg xmlns="http://www.w3.org/2000/svg" xmlns:xlink="http://www.w3.org/1999/xlink" style="isolation:isolate" viewBox="0 0 512 512" width="512pt" height="512pt"><defs><clipPath id="_clipPath_85lnwd7dDX8J2S8C7BzHk4zoEG1fQYah"><rect width="512" height="512"/></clipPath></defs><g clip-path="url(#_clipPath_85lnwd7dDX8J2S8C7BzHk4zoEG1fQYah)"><path d=" M 497.941 225.941 L 286.059 14.059 C 277.057 5.057 264.848 0 252.118 0 L 48 0 C 21.49 0 0 21.49 0 48 L 0 252.118 C 0 264.848 5.057 277.057 14.059 286.059 L 225.941 497.941 C 244.686 516.686 275.078 516.687 293.823 497.941 L 497.941 293.823 C 516.686 275.078 516.686 244.686 497.941 225.941 L 497.941 225.941 Z  M 259.886 463.996 L 48 252.118 L 48 48 L 252.118 48 L 464 259.882 L 259.886 463.996 L 259.886 463.996 Z  M 192 144 C 192 170.51 170.51 192 144 192 C 117.49 192 96 170.51 96 144 C 96 117.49 117.49 96 144 96 C 170.51 96 192 117.49 192 144 Z " fill="rgb(255,255,255)"/></g></svg>