<?xml version="1.0" encoding="UTF-8" standalone="no"?><!-- Generator: Gravit.io --><svg xmlns="http://www.w3.org/2000/svg" xmlns:xlink="http://www.w3.org/1999/xlink" style="isolation:isolate" viewBox="0 0 608 512" width="608pt" height="512pt"><defs><clipPath id="_clipPath_7o7wa37IFMitHdqRnxdAhKvALgFgEdEC"><rect width="608" height="512"/></clipPath></defs><g clip-path="url(#_clipPath_7o7wa37IFMitHdqRnxdAhKvALgFgEdEC)"><path d=" M 416 320 L 352 320 C 334.33 320 320 334.33 320 352 L 320 480 C 320 497.67 334.33 512 352 512 L 416 512 C 433.67 512 448 497.67 448 480 L 448 352 C 448 334.33 433.67 320 416 320 Z  M 400 464 L 368 464 L 368 368 L 400 368 L 400 464 L 400 464 Z  M 576 192 L 512 192 C 494.33 192 480 206.33 480 224 L 480 480 C 480 497.67 494.33 512 512 512 L 576 512 C 593.67 512 608 497.67 608 480 L 608 224 C 608 206.33 593.67 192 576 192 Z  M 560 464 L 528 464 L 528 240 L 560 240 L 560 464 L 560 464 Z  M 256 192 L 192 192 C 174.33 192 160 206.33 160 224 L 160 480 C 160 497.67 174.33 512 192 512 L 256 512 C 273.67 512 288 497.67 288 480 L 288 224 C 288 206.33 273.67 192 256 192 Z  M 240 464 L 208 464 L 208 240 L 240 240 L 240 464 L 240 464 Z  M 96 352 L 32 352 C 14.33 352 0 366.33 0 384 L 0 480 C 0 497.67 14.33 512 32 512 L 96 512 C 113.67 512 128 497.67 128 480 L 128 384 C 128 366.33 113.67 352 96 352 Z  M 80 464 L 48 464 L 48 400 L 80 400 L 80 464 L 80 464 Z  M 64 256 C 90.51 256 112 234.51 112 208 C 112 203.73 111.26 199.66 110.22 195.72 L 211.72 94.22 C 215.66 95.26 219.73 96 224 96 C 230.15 96 235.97 94.74 241.38 92.63 L 336.72 168.9 C 336.37 171.23 336.01 173.57 336.01 176 C 336.01 202.51 357.5 224 384.01 224 C 410.52 224 432.01 202.51 432.01 176 C 432.01 173.57 431.64 171.24 431.3 168.91 L 526.64 92.64 C 532.03 94.74 537.85 96 544 96 C 570.51 96 592 74.51 592 48 C 592 21.49 570.51 0 544 0 C 517.49 0 496 21.49 496 48 C 496 50.43 496.37 52.76 496.71 55.09 L 401.37 131.36 C 395.97 129.25 390.14 127.99 383.99 127.99 C 377.84 127.99 372.02 129.25 366.61 131.36 L 271.29 55.1 C 271.64 52.77 272 50.43 272 48 C 272 21.49 250.51 0 224 0 C 197.49 0 176 21.49 176 48 C 176 52.27 176.74 56.34 177.78 60.28 L 76.28 161.78 C 72.34 160.74 68.27 160 64 160 C 37.49 160 16 181.49 16 208 C 16 234.51 37.49 256 64 256 Z " fill="rgb(0,0,0)"/></g></svg>