<?xml version="1.0" encoding="UTF-8" standalone="no"?><!-- Generator: Gravit.io --><svg xmlns="http://www.w3.org/2000/svg" xmlns:xlink="http://www.w3.org/1999/xlink" style="isolation:isolate" viewBox="0 0 448 512" width="448pt" height="512pt"><defs><clipPath id="_clipPath_NmrVyVWGhwfaYqHbAcPzPiRpKqujchwZ"><rect width="448" height="512"/></clipPath></defs><g clip-path="url(#_clipPath_NmrVyVWGhwfaYqHbAcPzPiRpKqujchwZ)"><path d=" M 433.941 129.941 L 350.059 46.059 C 341.057 37.057 328.848 32 316.118 32 L 48 32 C 21.49 32 0 53.49 0 80 L 0 432 C 0 458.51 21.49 480 48 480 L 400 480 C 426.51 480 448 458.51 448 432 L 448 163.882 C 448 151.152 442.943 138.943 433.941 129.941 L 433.941 129.941 Z  M 272 80 L 272 160 L 144 160 L 144 80 L 272 80 L 272 80 Z  M 394 432 L 54 432 C 50.686 432 48 429.314 48 426 L 48 86 C 48 82.686 50.686 80 54 80 L 96 80 L 96 184 C 96 197.255 106.745 208 120 208 L 296 208 C 309.255 208 320 197.255 320 184 L 320 83.882 L 398.243 162.125 C 399.368 163.25 400 164.777 400 166.368 L 400 426 C 400 429.314 397.314 432 394 432 Z  M 224 232 C 175.477 232 136 271.477 136 320 C 136 368.523 175.477 408 224 408 C 272.523 408 312 368.523 312 320 C 312 271.477 272.523 232 224 232 Z  M 224 360 C 201.944 360 184 342.056 184 320 C 184 297.944 201.944 280 224 280 C 246.056 280 264 297.944 264 320 C 264 342.056 246.056 360 224 360 Z " fill="rgb(255,255,255)"/></g></svg>