<?xml version="1.0" encoding="UTF-8" standalone="no"?><!-- Generator: Gravit.io --><svg xmlns="http://www.w3.org/2000/svg" xmlns:xlink="http://www.w3.org/1999/xlink" style="isolation:isolate" viewBox="0 0 512 512" width="512pt" height="512pt"><defs><clipPath id="_clipPath_NDw1VlGMWIyNnUL3oqL9HpzgpnjpJJQC"><rect width="512" height="512"/></clipPath></defs><g clip-path="url(#_clipPath_NDw1VlGMWIyNnUL3oqL9HpzgpnjpJJQC)"><path d=" M 508.5 468.9 L 387.1 347.5 C 384.8 345.2 381.8 344 378.6 344 L 365.4 344 C 396.9 307.5 416 260 416 208 C 416 93.1 322.9 0 208 0 C 93.1 0 0 93.1 0 208 C 0 322.9 93.1 416 208 416 C 260 416 307.5 396.9 344 365.4 L 344 378.6 C 344 381.8 345.3 384.8 347.5 387.1 L 468.9 508.5 C 473.6 513.2 481.2 513.2 485.9 508.5 L 508.5 485.9 C 513.2 481.2 513.2 473.6 508.5 468.9 Z  M 208 368 C 119.6 368 48 296.4 48 208 C 48 119.6 119.6 48 208 48 C 296.4 48 368 119.6 368 208 C 368 296.4 296.4 368 208 368 Z " fill="rgb(162,162,162)"/></g></svg>