<?xml version="1.0" encoding="UTF-8" standalone="no"?><!-- Generator: Gravit.io --><svg xmlns="http://www.w3.org/2000/svg" xmlns:xlink="http://www.w3.org/1999/xlink" style="isolation:isolate" viewBox="0 0 512 512" width="512pt" height="512pt"><defs><clipPath id="_clipPath_xe2wajzYu6HypMajQhnXN1MFXJ3GrTTb"><rect width="512" height="512"/></clipPath></defs><g clip-path="url(#_clipPath_xe2wajzYu6HypMajQhnXN1MFXJ3GrTTb)"><path d=" M 452.515 237 L 484.358 218.618 C 493.784 213.177 498.354 202.076 495.535 191.564 C 484.131 149.033 461.693 111.017 431.477 80.767 C 423.797 73.079 411.902 71.521 402.492 76.956 L 370.707 95.314 C 360.382 87.925 349.364 81.555 337.808 76.294 L 337.808 39.541 C 337.807 28.656 330.485 19.133 319.966 16.335 C 278.205 5.228 233.849 5.214 192.036 16.334 C 181.517 19.132 174.192 28.655 174.192 39.54 L 174.192 76.293 C 162.636 81.554 151.618 87.924 141.293 95.313 L 109.508 76.955 C 100.098 71.52 88.203 73.078 80.523 80.766 C 50.307 111.016 27.869 149.031 16.465 191.563 C 13.646 202.075 18.216 213.176 27.642 218.617 L 59.485 237 C 58.265 249.637 58.265 262.362 59.485 274.999 L 27.642 293.381 C 18.216 298.822 13.646 309.923 16.465 320.435 C 27.869 362.966 50.307 400.982 80.523 431.232 C 88.203 438.92 100.098 440.478 109.508 435.043 L 141.293 416.685 C 151.618 424.074 162.636 430.444 174.192 435.704 L 174.192 472.457 C 174.193 483.342 181.515 492.865 192.034 495.663 C 233.795 506.77 278.151 506.785 319.964 495.664 C 330.483 492.866 337.808 483.343 337.808 472.458 L 337.808 435.705 C 349.363 430.444 360.381 424.074 370.707 416.686 L 402.492 435.044 C 411.902 440.479 423.797 438.921 431.477 431.233 C 461.693 400.983 484.131 362.967 495.535 320.436 C 498.354 309.924 493.784 298.823 484.358 293.382 L 452.515 275 C 453.735 262.35 453.735 249.65 452.515 237 Z  M 399.836 300.019 L 443.655 325.308 C 435.773 346.596 424.327 366.387 409.806 383.836 L 365.977 358.527 C 333.993 385.924 329.318 388.604 289.809 402.556 L 289.809 453.155 C 267.432 456.975 244.568 456.975 222.191 453.155 L 222.191 402.556 C 182.687 388.606 177.995 385.914 146.023 358.527 L 102.194 383.836 C 87.674 366.387 76.227 346.596 68.345 325.308 L 112.164 300.019 C 104.534 258.72 104.53 253.3 112.164 211.981 L 68.345 186.692 C 76.195 165.463 87.655 145.643 102.194 128.163 L 146.023 153.472 C 178.007 126.075 182.683 123.394 222.191 109.443 L 222.191 58.845 C 244.568 55.025 267.432 55.025 289.809 58.845 L 289.809 109.444 C 329.313 123.394 334.005 126.086 365.977 153.473 L 409.806 128.164 C 424.327 145.613 435.773 165.405 443.655 186.693 L 399.836 211.982 C 407.467 253.282 407.47 258.7 399.836 300.019 Z  M 256 160 C 203.065 160 160 203.065 160 256 C 160 308.935 203.065 352 256 352 C 308.935 352 352 308.935 352 256 C 352 203.065 308.935 160 256 160 Z  M 256 304 C 229.532 304 208 282.468 208 256 C 208 229.533 229.532 208 256 208 C 282.468 208 304 229.533 304 256 C 304 282.468 282.468 304 256 304 Z " fill="rgb(0,0,0)"/></g></svg>