<?xml version="1.0" encoding="UTF-8" standalone="no"?><!-- Generator: Gravit.io --><svg xmlns="http://www.w3.org/2000/svg" xmlns:xlink="http://www.w3.org/1999/xlink" style="isolation:isolate" viewBox="0 0 512 512" width="512pt" height="512pt"><defs><clipPath id="_clipPath_wv5Q4zkeGkkCR1BnoUjNN3MUqXVMPoWx"><rect width="512" height="512"/></clipPath></defs><g clip-path="url(#_clipPath_wv5Q4zkeGkkCR1BnoUjNN3MUqXVMPoWx)"><path d=" M 272 112 L 272 163.6 L 176 163.6 C 149.5 163.6 128 185.1 128 211.6 L 128 300.2 C 128 326.7 149.5 348.2 176 348.2 L 272 348.2 L 272 399.8 C 272 442.4 323.7 464 353.9 433.7 L 497.9 289.8 C 516.6 271.1 516.6 240.7 497.9 221.9 L 353.9 77.9 C 323.8 48 272 69.3 272 112 Z  M 464 256 L 320 400 L 320 300.3 L 176 300.3 L 176 211.7 L 320 211.7 L 320 112 L 464 256 L 464 256 Z  M 96 64 L 180 64 C 186.6 64 192 69.4 192 76 L 192 100 C 192 106.6 186.6 112 180 112 L 96 112 C 69.5 112 48 133.5 48 160 L 48 352 C 48 378.5 69.5 400 96 400 L 180 400 C 186.6 400 192 405.4 192 412 L 192 436 C 192 442.6 186.6 448 180 448 L 96 448 C 43 448 0 405 0 352 L 0 160 C 0 107 43 64 96 64 Z " fill="rgb(0,0,0)"/></g></svg>