<?xml version="1.0" encoding="UTF-8" standalone="no"?><!-- Generator: Gravit.io --><svg xmlns="http://www.w3.org/2000/svg" xmlns:xlink="http://www.w3.org/1999/xlink" style="isolation:isolate" viewBox="0 0 512 512" width="512pt" height="512pt"><defs><clipPath id="_clipPath_lIgOecFFLAGsIeKCgAePBKYeFBc0B9w0"><rect width="512" height="512"/></clipPath></defs><g clip-path="url(#_clipPath_lIgOecFFLAGsIeKCgAePBKYeFBc0B9w0)"><g opacity="0.4"><path d=" M 456.71 370.69 L 428.88 354.79 C 422.227 350.911 419.305 342.826 421.94 335.59 C 382.552 417.689 289.038 458.63 201.996 431.883 C 114.955 405.136 60.569 318.745 74.081 228.695 C 87.594 138.644 164.941 72.022 256 72 C 261.89 72 267.71 72.29 273.46 72.83 C 272.72 72.76 271.98 72.68 271.23 72.62 C 262.74 71.93 256 65.31 256 56.79 L 256 24.79 C 255.993 16.205 262.762 9.144 271.34 8.79 C 266.24 8.46 261.18 8 256 8 C 119 8 8 119 8 256 C 8 393 119 504 256 504 C 354 504 438.42 447.05 478.71 364.58 C 474.58 372.44 464.48 375.13 456.71 370.69 L 456.71 370.69 Z " fill="rgb(255,255,255)"/></g><path d=" M 271.23 72.62 C 262.74 71.93 256 65.31 256 56.79 L 256 24.73 C 256 15.62 263.67 7.95 272.77 8.56 C 401.92 17.18 504 124.67 504 256 C 504.029 293.514 495.477 330.538 479 364.24 C 475 372.41 464.63 375.24 456.74 370.69 L 428.9 354.79 C 421.49 350.56 419.07 341.44 422.7 333.72 C 434.116 309.402 440.023 282.864 440 256 C 440 159.51 365.73 80.37 271.23 72.62 Z " fill="rgb(255,255,255)"/></g></svg>