<?xml version="1.0" encoding="UTF-8" standalone="no"?><!-- Generator: Gravit.io --><svg xmlns="http://www.w3.org/2000/svg" xmlns:xlink="http://www.w3.org/1999/xlink" style="isolation:isolate" viewBox="0 0 576 512" width="576pt" height="512pt"><defs><clipPath id="_clipPath_0XvFTyRl9Vm7B36xbfsbQhsbBTDk9riC"><rect width="576" height="512"/></clipPath></defs><g clip-path="url(#_clipPath_0XvFTyRl9Vm7B36xbfsbQhsbBTDk9riC)"><path d=" M 512 160 L 416 160 L 416 64 C 416 28.7 387.3 0 352 0 L 64 0 C 28.7 0 0 28.7 0 64 L 0 224 C 0 259.3 28.7 288 64 288 L 96 288 L 96 340 C 96 347.1 101.8 352 108 352 C 110.4 352 112.9 351.3 115.1 349.6 L 192 306.1 L 192 384 C 192 419.3 220.7 448 256 448 L 352 448 L 460.9 509.6 C 463.1 511.2 465.6 512 468 512 C 474.2 512 480 507.1 480 500 L 480 448 L 512 448 C 547.3 448 576 419.3 576 384 L 576 224 C 576 188.7 547.3 160 512 160 Z  M 96 240 L 64 240 C 55.2 240 48 232.8 48 224 L 48 64 C 48 55.2 55.2 48 64 48 L 352 48 C 360.8 48 368 55.2 368 64 L 368 224 C 368 232.8 360.8 240 352 240 L 211.4 240 L 200.4 246.2 L 144 278.1 L 144 240 L 96 240 L 96 240 Z  M 528 384 C 528 392.8 520.8 400 512 400 L 432 400 L 432 438.1 L 375.6 406.2 L 364.6 400 L 256 400 C 247.2 400 240 392.8 240 384 L 240 288 L 352 288 C 387.3 288 416 259.3 416 224 L 416 208 L 512 208 C 520.8 208 528 215.2 528 224 L 528 384 L 528 384 Z " fill="rgb(0,0,0)"/></g></svg>