<?xml version="1.0" encoding="UTF-8" standalone="no"?><!-- Generator: Gravit.io --><svg xmlns="http://www.w3.org/2000/svg" xmlns:xlink="http://www.w3.org/1999/xlink" style="isolation:isolate" viewBox="0 0 448 512" width="448pt" height="512pt"><defs><clipPath id="_clipPath_7fR46PcemtLn1fCqK9kAbuKHMGpY11mm"><rect width="448" height="512"/></clipPath></defs><g clip-path="url(#_clipPath_7fR46PcemtLn1fCqK9kAbuKHMGpY11mm)"><path d=" M 268 416 L 292 416 C 298.627 416 304 410.627 304 404 L 304 188 C 304 181.373 298.627 176 292 176 L 268 176 C 261.373 176 256 181.373 256 188 L 256 404 C 256 410.627 261.373 416 268 416 Z  M 432 80 L 349.59 80 L 315.59 23.3 C 306.911 8.838 291.277 -0.008 274.41 0 L 173.59 0 C 156.73 -0.001 141.106 8.844 132.43 23.3 L 98.41 80 L 16 80 C 7.163 80 0 87.163 0 96 L 0 112 C 0 120.837 7.163 128 16 128 L 32 128 L 32 464 C 32 490.51 53.49 512 80 512 L 368 512 C 394.51 512 416 490.51 416 464 L 416 128 L 432 128 C 440.837 128 448 120.837 448 112 L 448 96 C 448 87.163 440.837 80 432 80 Z  M 171.84 50.91 C 172.928 49.099 174.888 47.994 177 48 L 271 48 C 273.109 47.998 275.064 49.102 276.15 50.91 L 293.61 80 L 154.39 80 L 171.84 50.91 Z  M 368 464 L 80 464 L 80 128 L 368 128 L 368 464 Z  M 156 416 L 180 416 C 186.627 416 192 410.627 192 404 L 192 188 C 192 181.373 186.627 176 180 176 L 156 176 C 149.373 176 144 181.373 144 188 L 144 404 C 144 410.627 149.373 416 156 416 Z " fill="rgb(255,255,255)"/></g></svg>