<?xml version="1.0" encoding="UTF-8" standalone="no"?><!-- Generator: Gravit.io --><svg xmlns="http://www.w3.org/2000/svg" xmlns:xlink="http://www.w3.org/1999/xlink" style="isolation:isolate" viewBox="0 0 640 512" width="640pt" height="512pt"><defs><clipPath id="_clipPath_5aowSAVyJEBImR6dC1vPyjSJCn9sfW1Z"><rect width="640" height="512"/></clipPath></defs><g clip-path="url(#_clipPath_5aowSAVyJEBImR6dC1vPyjSJCn9sfW1Z)"><path d=" M 480 256 C 533 256 576 213 576 160 C 576 107 533 64 480 64 C 427 64 384 107 384 160 C 384 213 427 256 480 256 Z  M 480 112 C 506.5 112 528 133.5 528 160 C 528 186.5 506.5 208 480 208 C 453.5 208 432 186.5 432 160 C 432 133.5 453.5 112 480 112 Z  M 272.1 276 C 260.2 276 248.2 277.7 236.6 281.3 C 222.4 285.6 207.5 288 191.9 288 C 176.3 288 161.4 285.6 147.2 281.3 C 135.6 277.8 123.6 276 111.7 276 C 75.4 276 40.1 292.2 19.4 322.9 C 7.2 341.3 0 363.4 0 387.2 L 0 432 C 0 458.5 21.5 480 48 480 L 336 480 C 362.5 480 384 458.5 384 432 L 384 387.2 C 384 363.4 376.8 341.3 364.4 322.9 C 343.7 292.2 308.4 276 272.1 276 L 272.1 276 Z  M 336 432 L 48 432 L 48 387.2 C 48 358.3 66.4 333.6 92.1 324.1 C 102.4 320.3 113.7 320.4 124 324.1 C 146.1 332 169 336 192 336 C 215 336 237.8 332 260.1 324.1 C 270.4 320.4 281.7 320.3 292 324.1 C 317.7 333.5 336.1 358.3 336.1 387.2 L 336.1 432 L 336 432 Z  M 192 256 C 253.9 256 304 205.9 304 144 C 304 82.1 253.9 32 192 32 C 130.1 32 80 82.1 80 144 C 80 205.9 130.1 256 192 256 Z  M 192 80 C 227.3 80 256 108.7 256 144 C 256 179.3 227.3 208 192 208 C 156.7 208 128 179.3 128 144 C 128 108.7 156.7 80 192 80 Z  M 623.7 317.1 C 606.4 291.5 577 278 546.8 278 C 519 278 512 288 480 288 C 448 288 441 278 413.2 278 C 399.9 278 387 281 375 286.1 C 380.8 292 386.3 298.1 391 305 C 395.7 312 399.6 319.4 403 327 C 406.3 326.3 409.7 325.9 413.2 325.9 C 430.4 325.9 442.8 335.9 480 335.9 C 517.4 335.9 529.5 325.9 546.8 325.9 C 562.5 325.9 576.3 332.6 583.9 343.8 C 589.2 351.7 592 360.9 592 370.5 L 592 400 L 416 400 L 416 432 C 416 437.5 415.4 442.8 414.4 448 L 600 448 C 622.1 448 640 430.1 640 408 L 640 370.7 C 640 350.8 634 332.4 623.7 317.1 L 623.7 317.1 Z " fill="rgb(255,255,255)"/></g></svg>