<?xml version="1.0" encoding="UTF-8" standalone="no"?><!-- Generator: Gravit.io --><svg xmlns="http://www.w3.org/2000/svg" xmlns:xlink="http://www.w3.org/1999/xlink" style="isolation:isolate" viewBox="365.802 297.75 342.23 58" width="342.23pt" height="58pt"><defs><clipPath id="_clipPath_UiM773OZzSzpmMn0AO9Gz9W6Ujtky2zF"><rect x="365.802" y="297.75" width="342.23" height="58"/></clipPath></defs><g clip-path="url(#_clipPath_UiM773OZzSzpmMn0AO9Gz9W6Ujtky2zF)"><rect x="365.802" y="297.75" width="342.23" height="58" style="fill:rgb(232,232,232)" fill-opacity="0"/><path d=" M 469.989 346.026 L 444.852 346.026 L 444.852 303.194 L 451.854 303.194 L 451.854 340.021 L 469.989 340.021 L 469.989 346.026 L 469.989 346.026 Z  M 505.6 340.079 L 505.6 346.026 L 481.372 346.026 L 481.372 303.194 L 505.6 303.194 L 505.6 309.112 L 488.374 309.112 L 488.374 320.772 L 504.516 320.772 L 504.516 326.632 L 488.374 326.632 L 488.374 340.079 L 505.6 340.079 L 505.6 340.079 Z  M 525.86 346.026 L 518.858 346.026 L 518.858 303.194 L 525.86 303.194 L 525.86 346.026 L 525.86 346.026 Z  M 576.852 303.194 L 576.852 346.026 L 568.268 346.026 L 547.204 311.896 L 546.97 311.896 L 547.116 313.8 L 547.116 313.8 Q 547.526 319.249 547.526 323.761 L 547.526 323.761 L 547.526 346.026 L 541.169 346.026 L 541.169 303.194 L 549.665 303.194 L 570.671 337.149 L 570.846 337.149 L 570.846 337.149 Q 570.788 336.476 570.612 332.242 L 570.612 332.242 L 570.612 332.242 Q 570.436 328.009 570.436 325.636 L 570.436 325.636 L 570.436 303.194 L 576.852 303.194 L 576.852 303.194 Z  M 626.175 346.026 L 618.733 346.026 L 614.456 334.132 L 598.079 334.132 L 593.889 346.026 L 586.507 346.026 L 602.532 303.019 L 610.149 303.019 L 626.175 346.026 L 626.175 346.026 Z  M 600.13 328.097 L 612.61 328.097 L 608.596 316.437 L 608.596 316.437 Q 608.157 315.265 607.381 312.745 L 607.381 312.745 L 607.381 312.745 Q 606.604 310.226 606.311 309.054 L 606.311 309.054 L 606.311 309.054 Q 605.52 312.657 603.997 316.935 L 603.997 316.935 L 600.13 328.097 L 600.13 328.097 Z  M 642.831 309.112 L 642.831 323.116 L 647.694 323.116 L 647.694 323.116 Q 652.587 323.116 654.784 321.3 L 654.784 321.3 L 654.784 321.3 Q 656.981 319.483 656.981 315.909 L 656.981 315.909 L 656.981 315.909 Q 656.981 312.276 654.608 310.694 L 654.608 310.694 L 654.608 310.694 Q 652.235 309.112 647.46 309.112 L 647.46 309.112 L 642.831 309.112 L 642.831 309.112 Z  M 649.745 328.917 L 642.831 328.917 L 642.831 346.026 L 635.829 346.026 L 635.829 303.194 L 647.929 303.194 L 647.929 303.194 Q 656.22 303.194 660.204 306.3 L 660.204 306.3 L 660.204 306.3 Q 664.188 309.405 664.188 315.675 L 664.188 315.675 L 664.188 315.675 Q 664.188 323.673 655.868 327.071 L 655.868 327.071 L 667.968 346.026 L 659.999 346.026 L 649.745 328.917 L 649.745 328.917 Z  M 680.141 303.194 L 690.278 322.735 L 700.415 303.194 L 708.032 303.194 L 693.764 329.415 L 693.764 346.026 L 686.733 346.026 L 686.733 329.649 L 672.524 303.194 L 680.141 303.194 L 680.141 303.194 Z " fill="rgb(255,255,255)"/><path d=" M 408.277 355.75 L 422.777 355.75 L 422.777 297.75 L 387.198 297.75 L 387.198 312.25 L 408.277 312.25 L 408.277 341.25 L 408.277 355.75 Z " fill="rgb(255,255,255)"/><path d=" M 380.302 297.75 L 365.802 297.75 L 365.802 355.75 L 402.198 355.75 L 402.198 341.25 L 380.302 341.25 L 380.302 312.25 L 380.302 297.75 Z " fill="rgb(209,16,45)"/></g></svg>