<?xml version="1.0" encoding="UTF-8" standalone="no"?><!-- Generator: Gravit.io --><svg xmlns="http://www.w3.org/2000/svg" xmlns:xlink="http://www.w3.org/1999/xlink" style="isolation:isolate" viewBox="365.552 266.5 332.73 58" width="332.73pt" height="58pt"><defs><clipPath id="_clipPath_Cc0DZUMZxqDJDveTeIkxM4Qb2kLLn6jd"><rect x="365.552" y="266.5" width="332.73" height="58"/></clipPath></defs><g clip-path="url(#_clipPath_Cc0DZUMZxqDJDveTeIkxM4Qb2kLLn6jd)"><path d=" M 460.239 318.776 L 435.102 318.776 L 435.102 275.944 L 442.104 275.944 L 442.104 312.771 L 460.239 312.771 L 460.239 318.776 L 460.239 318.776 Z  M 495.85 312.829 L 495.85 318.776 L 471.622 318.776 L 471.622 275.944 L 495.85 275.944 L 495.85 281.862 L 478.624 281.862 L 478.624 293.522 L 494.766 293.522 L 494.766 299.382 L 478.624 299.382 L 478.624 312.829 L 495.85 312.829 L 495.85 312.829 Z  M 516.11 318.776 L 509.108 318.776 L 509.108 275.944 L 516.11 275.944 L 516.11 318.776 L 516.11 318.776 Z  M 567.102 275.944 L 567.102 318.776 L 558.518 318.776 L 537.454 284.646 L 537.22 284.646 L 537.366 286.55 L 537.366 286.55 Q 537.776 291.999 537.776 296.511 L 537.776 296.511 L 537.776 318.776 L 531.419 318.776 L 531.419 275.944 L 539.915 275.944 L 560.921 309.899 L 561.096 309.899 L 561.096 309.899 Q 561.038 309.226 560.862 304.992 L 560.862 304.992 L 560.862 304.992 Q 560.686 300.759 560.686 298.386 L 560.686 298.386 L 560.686 275.944 L 567.102 275.944 L 567.102 275.944 Z  M 616.425 318.776 L 608.983 318.776 L 604.706 306.882 L 588.329 306.882 L 584.139 318.776 L 576.757 318.776 L 592.782 275.769 L 600.399 275.769 L 616.425 318.776 L 616.425 318.776 Z  M 590.38 300.847 L 602.86 300.847 L 598.846 289.187 L 598.846 289.187 Q 598.407 288.015 597.631 285.495 L 597.631 285.495 L 597.631 285.495 Q 596.854 282.976 596.561 281.804 L 596.561 281.804 L 596.561 281.804 Q 595.77 285.407 594.247 289.685 L 594.247 289.685 L 590.38 300.847 L 590.38 300.847 Z  M 633.081 281.862 L 633.081 295.866 L 637.944 295.866 L 637.944 295.866 Q 642.837 295.866 645.034 294.05 L 645.034 294.05 L 645.034 294.05 Q 647.231 292.233 647.231 288.659 L 647.231 288.659 L 647.231 288.659 Q 647.231 285.026 644.858 283.444 L 644.858 283.444 L 644.858 283.444 Q 642.485 281.862 637.71 281.862 L 637.71 281.862 L 633.081 281.862 L 633.081 281.862 Z  M 639.995 301.667 L 633.081 301.667 L 633.081 318.776 L 626.079 318.776 L 626.079 275.944 L 638.179 275.944 L 638.179 275.944 Q 646.47 275.944 650.454 279.05 L 650.454 279.05 L 650.454 279.05 Q 654.438 282.155 654.438 288.425 L 654.438 288.425 L 654.438 288.425 Q 654.438 296.423 646.118 299.821 L 646.118 299.821 L 658.218 318.776 L 650.249 318.776 L 639.995 301.667 L 639.995 301.667 Z  M 670.391 275.944 L 680.528 295.485 L 690.665 275.944 L 698.282 275.944 L 684.014 302.165 L 684.014 318.776 L 676.983 318.776 L 676.983 302.399 L 662.774 275.944 L 670.391 275.944 L 670.391 275.944 Z " fill="rgb(255,255,255)"/><path d=" M 408.027 324.5 L 422.527 324.5 L 422.527 266.5 L 386.948 266.5 L 386.948 281 L 408.027 281 L 408.027 310 L 408.027 324.5 Z " fill="rgb(255,255,255)"/><path d=" M 380.052 266.5 L 365.552 266.5 L 365.552 324.5 L 401.948 324.5 L 401.948 310 L 380.052 310 L 380.052 281 L 380.052 266.5 Z " fill="rgb(209,16,45)"/></g></svg>